<svg xmlns="http://www.w3.org/2000/svg" viewBox="0 0 1319.7 1425" style="enable-background:new 0 0 1319.7 1425" xml:space="preserve"><path d="M332.2 897.6c-4.5-13.1-11.6-20.8-23.3-22.4-14-1.8-28.2-2.4-42.4-3.4-3.5-.3-7 .1-10.4-.5-1.5-.3-2.8-2.2-4.2-3.4 1.4-1.2 2.7-3.4 4.1-3.5 7.2-.4 14.5.1 21.7-.3 9.3-.6 18.8-.8 27.9-2.8 18.9-4.1 26.4-13.2 27.2-32.6.6-13.9-.2-27.8.1-41.7.1-4.9 1.9-9.8 3-14.7 1.4.1 2.7.1 4.1.2 1.1 8.8 2.5 17.6 3.1 26.5.7 11.8.8 23.6 1.2 35.4.3 12.1 6.5 20 17.6 24.5 9.8 4 19.7 6.9 29.2 4.5 2-9.2 2.6-18.1 5.9-26 5.7-13.7 16.7-20.4 32-21.6 27.9-2.1 52.8 7.2 77.2 18.6 2.7 1.2 5.4 2.4 8.1 3.5.7.3 1.5.1 4.6.4-4.2-3.6-6.8-6.2-9.8-8.3-54.2-37.6-86.3-90.3-105.5-152.3-18.1-58.6-17.2-117.8-8.9-177.6 5.2-37.3 13.1-73.8 24.6-109.6.5-1.5.5-3.1.7-4.7-26-2.9-46.1 11.1-50.1 36.5-2.2 13.7-1.7 27.8-2.1 41.7-.4 16.6-.4 33.3-.6 49.9 0 1.9.3 4.2-.6 5.5-1.5 2.2-3.7 4.7-6 5.3-4.3 1.1-5.2-2-5.2-5.8.1-14.8.6-29.6-.1-44.3-.8-15.5-1.8-31.2-4.7-46.3-5.6-28.4-19.3-40.5-48.3-43-23.8-2.1-47.7-2.6-71.6-3.9-1.6-.1-3.1-.3-5.5-.5-.1-3-.3-5.8-.5-9.9 6.1-.5 11.9-1.1 17.6-1.3 20.4-.8 40.7-1.1 61.1-2.4 6-.4 12-2.8 17.8-4.9 24.1-8.6 29.1-29.2 30.2-51.1.9-17.9.2-35.9-.5-53.9-.7-16 .8-23 9.7-31 1.9 9.3 4.6 17.4 5.1 25.7 1.3 22.2 1.5 44.6 2.5 66.8 1.2 29.6 22.9 50.1 52.6 50.8 5.5.1 5.8-3.4 7.1-6.8 12.1-32.3 23.1-65.2 36.6-96.9 13-30.3 27.7-60 48.2-86.1 8.6-11 17.9-21.8 32.6-24.9 3.3-.7 7.5-.2 10.4 1.4 12.3 6.7 21.9 16.5 28.5 28.7 11.2 20.7 28.4 35.4 46.9 49 2 1.4 5.6 2.3 7.7 1.5 37.3-13.6 73.8-28.7 107.9-49.6 20.5-12.5 32.3-29.8 37.8-52.5 3.9-16.1 7.5-32.5 18.6-45.8 7.2-8.6 11.9-10.3 22.5-6.9 21.7 7.1 38.9 21.2 55.8 35.9 1.8 1.6 4 3 5.3 5 12.6 19 30.7 17.5 49.4 13.2 27.6-6.4 38.3-19.5 39.5-49.6.6-15.8-.3-31.6-.5-47.5-.1-9.3-1.2-18.9 8.2-28.3 1.9 8.7 4.5 15.8 4.9 23.1 1.2 18.5 1.4 37 2.2 55.5 1.5 31.7 17.3 47.6 49.4 49.1 13.4.6 26.8-.1 40.3-.1 2.4 0 5 0 7 1 1.8 1 3.6 3.3 3.8 5.2.2 1.2-2.3 3.6-4 4.1-4.1 1.1-8.4 1.7-12.6 2-16.8 1.2-33.8 1.5-50.5 3.5-18.9 2.3-29.3 12-31.5 31.1-2 17-1.2 34.3-1.5 51.4 0 1.5.5 3.3 1.3 4.6 30.1 44.2 49.2 93.7 69.6 142.6 23.6 56.8 34.8 115.8 32.8 177.2-.4 13.3-2.7 26.6-4.2 40.1 1.4.4 2.5.5 3.3 1.1 2.9 1.9 5.8 3.9 8.7 5.8-2.7 2.1-5.1 5.4-8.1 6-5.4 1.2-6.7 4.5-7.4 9-5.4 38-17.2 74.2-34.6 108.3-18.7 36.5-41.4 70.3-72.9 97.3-4.8 4.1-9.3 8.7-15.5 14.6 4.9.4 7.6.8 10.4.9 13.7.2 27.4.1 41.1.5 14.9.4 25.2 9.7 27.7 24.7 3.1 18.7-1.8 35.3-14.2 49.3-8.4 9.4-18 17.5-27.1 26.3 6.5 11 15 15.7 28.4 11.9 31.8-9.1 62.1-4.6 88.5 15.5 22.7 17.3 34 42.1 39 69.9 9.2 51.4-.5 99.7-23.1 146-2.8 5.7-5.4 11.6-8.1 17.6 26.7 3.5 50.2-13.5 52.4-39.3 1.7-19.2 1.3-38.6.8-57.8-.3-13.7.5-20.1 8.4-28.9 1.9 8.6 4.4 15.9 4.9 23.2 1.2 18.5 1.4 37 2.2 55.5 1.5 31.3 17.1 47.3 48.7 48.9 13.6.7 27.4-.1 41.1-.1 2.6 0 5.4.3 7.7 1.4 1.5.8 3 3.1 3.1 4.9.1 1.2-1.9 3.4-3.4 3.8-4.4 1.1-8.9 1.8-13.4 2.1-16.8 1.2-33.8 1.5-50.5 3.5-18.6 2.3-28.5 11.8-31.3 30.4-1.9 12.4-1.7 25.1-2 37.7-.4 15.6-.5 31.1-.6 46.7-.1 6.2-2.6 9.1-10.2 6.5 0-2.6.1-5.7 0-8.8-1.2-23.8-1.2-47.8-3.9-71.5-3-27.1-15.9-38.9-42.2-42.5-17.8-2.5-17.6-2.3-26.2 13.4-21 38.4-46.7 73.3-77.7 104.2-3.6 3.6-7.6 6.6-12.2 10.5 13.3 5.3 25.7 10.2 38.2 15.2 0 .8-.1 1.7-.1 2.5-4.6 1.7-9 4.1-13.8 4.9-43.5 7.3-87 15.1-130.8 21.2-15.2 2.1-31.1-.4-46.7-.2-89.7 1.5-179.4 4.3-269 4.4-57.7.1-115.5-2.7-173.1-6.2-40.6-2.4-81.1-7.7-121.6-12.8-11.4-1.4-22.4-6.6-33.6-10.1-.1-1.2-.3-2.4-.4-3.5 9.4-3.6 18.6-8.8 28.3-10.5 24.2-4.2 48.7-7.9 73.2-9.8 47.6-3.6 95.3-5.9 143-8.7 1.5-.1 3.1-.4 6.7-.9-12.4-13.2-23.8-25.3-36.8-39.1-2.5 3.5-4.2 6.7-6.7 9.1-26.3 25.4-64.8 31.4-98.4 15-33.7-16.5-60-41.8-83.8-70.3-33.9-40.7-50.8-89.6-66.9-138.8-10.8-33-17.6-66.9-16.4-101.9.3-8.1-3-9.9-9.9-8.7-7.7 1.3-15.5 2.1-23 4-14.5 3.7-23.1 15.4-24.3 33.1-.7 9.9-.5 19.9-.7 29.8-.3 14.2-.7 28.4-.8 42.7 0 6.1-2.8 7.5-9.3 5.5 0-12.4.8-25.3-.2-38.1-1.2-16-2.9-32-6.1-47.7-3.1-15-13.6-24.4-29-26.3-17.3-2-34.7-2.7-52.1-3.9-6.4-.4-12.8-.8-19.8-1.2v-8.8c5.7-.3 11.2-.8 16.8-1 15.3-.6 30.8.4 45.8-1.8 29.2-4.2 39.9-16.6 41.2-46.1.6-15.3-.4-30.6-.5-45.9-.1-8.1-.9-16.6 8-24.2 1.6 8.1 3.7 14.7 4.1 21.5 1.2 19 2.1 38 2.4 57 .2 16.5 7.6 27.4 22.7 33.5 10.8 4.3 21.6 7.7 33.2 5.7 2.2-15.3 4-30.1 6.6-44.8 2.9-16.1 9.7-30.8 20.7-43 18-19.9 40.5-21.1 64.3-13.2 9.2 3 17.8 7.2 28.7 11.6zm646.7-144.7c0-6.3.3-12.4 0-18.5-1.3-24.4-1.5-48.9-4.7-73-3.8-28.8-17.5-41.3-46.4-44.4-19.2-2.1-38.5-2.2-57.8-3.3-6.4-.4-12.7-1.1-18.8-1.6-2.6-7.9.1-10.6 7.3-10.5 14.2.2 28.5.4 42.7-.2 9.9-.4 19.8-1.3 29.5-3.1 20.6-3.9 37.4-13.5 40.9-36.1 2.6-16.9 3.2-34.1 3.8-51.2.4-11.8-1.2-23.6-.7-35.4.2-5 3.6-9.8 5.5-14.7 1.1.2 2.2.4 3.3.5 1.6 7.5 4.1 14.9 4.6 22.4 1.5 24.1 2.1 48.3 3.2 72.4.7 13.8 5.3 25.5 18 33.1 21.7 13 45 14.1 69.3 10.7.7-3 1.6-5.8 2-8.7 6.3-46.3 1.5-92.2-7.3-137.4-3.9-19.9-13.3-38.8-20.1-58.1-12.3-35.1-25-70.1-43.8-102.5-5.6-9.6-11.7-18.9-18.4-29.7-1.3 5.1-2.1 8.2-2.9 11.7-2.9-.1-5.4-.3-8.7-.4 0-7.8.3-15-.1-22.2-.2-3-1-6.4-2.7-8.8-6.7-9.7-13.3-19.6-20.8-28.7-16.2-19.7-32.9-38.9-49.4-58.3-5-5.9-11.2-8.3-19.1-7.9-7.9.4-15.8-.8-24-1.3-.8-17 14-5.8 19-12.2-17.8-16.5-36.5-31.5-58.2-42.8-5.3-2.7-8-1.6-11.5 2.4-9.3 10.8-13.2 24.1-15.4 37.5-4.8 28.8-21.5 48.5-45.9 62.6-35.8 20.7-72.4 39.5-112.3 51.3-3.2 1-7.9.2-10.8-1.6-21.5-13.3-39.8-29.6-52.1-52.4-6.8-12.5-17.6-21.8-29.9-29.1-29.9 27.1-47.1 62.1-65 96.2-18 34.4-27.3 72.2-39.9 109.2 2.5.4 3.5.6 4.6.6 9.1.1 18.3-.4 27.4.4 3 .3 5.7 3.8 8.5 5.8-2.4 2.1-4.6 5.6-7.2 5.9-10.3 1.2-20.8 1.6-31.2 1.7-4.6.1-7.1 1-8.6 5.9-15.9 52.9-29.7 106.1-33.4 161.5-2.5 37.5-.4 74.7 9.3 110.8 16.3 60.9 47.5 112.8 98 151.9 17.8 13.8 36.1 27.6 57.9 34.2 52.6 15.9 106.5 26.3 161.4 29.2 32.6 1.8 65.4 1.9 98.1 1.8 21.8-.1 43.1-3.8 63.7-11.5 5.6-2.1 8.6-4.5 8-11.4-.7-7.9-.6-16.5 8.4-23.1 2.2 9 4.1 17 6.2 25.6 97.4-51.9 144-138 165.3-243.1-18.8-1.6-35.4.5-52 3.5-18.2 3.2-28.5 14.1-32.2 31.4-1.8 8.3-2.4 17-2.6 25.5-.6 23.3-.7 46.7-.9 70.1-.3 6.6-2.3 10.4-11.1 7.4zm-76.9 297c-2.4 2-3.3 2.6-4 3.3-31.8 29.2-50.7 66.1-62.6 106.9-2.8 9.8-4 20.6-3 30.7 1.1 11.2 1.2 21.6-3.5 32.1-2 4.5-2.7 9.8-3.4 14.8-4.4 29.9 1.2 58.6 11.3 86.6 13.3 36.6 47.3 57.5 84 53.7 50-5.1 88.7-31.4 121.2-66.7 19.8-21.6 35.4-47.2 52.6-71.2 4.6-6.4 8-13.7 12.3-21.3-13.9-.7-26.4-1.4-39.4-2.1.2-3.8.4-6.4.7-10.3 9.4 0 18.3-1 27 .2 13.3 1.8 19.4-3.3 24.8-15.7 17.4-40.5 32.2-81.1 28.5-126.4-2.1-24.8-7.3-48.1-22.6-68.3-15.8-20.9-38.2-31.2-62.8-30-35.7 1.6-69.4 13-99.1 33.9-16.4 11.5-32.9 22.8-49.9 34.6-.2-2.6-.4-5.5-.6-8.4-1.4 21.2-1.4 42.4-1.4 63.6 0 6.7-2.7 9.4-10.1 6.6v-46.6zm-139.6 200.2c8.7-8.2 17.2-15.6 25-23.8 19.2-20.2 19.5-22.7 1.7-44.2-7.5-9.2-9.3-18-6-29.6 7.4-26.4 11-53.1 6.2-80.9-12-69.4-87.4-115.4-155.6-85-7.8 3.5-15.8 6.5-23.9 9.6-13.4 5-26.2 3.9-38.2-4.3-5.1-3.5-10.5-6.5-15.5-10.1-45.3-31.9-94.6-24.9-133.9 6.1-30.8 24.3-42.6 57.7-44.5 95.2-2.4 47.1 10.6 89.5 42.9 125 26 28.6 52 57.3 78.7 85.2 19.5 20.3 40.2 39.5 60.3 59.2 3.7 3.7 6.9 3.7 11.1.6 15.4-11.2 31.2-21.9 46.5-33.2 16.4-12 31.4-26.8 52.1-31 22.5-4.5 37.8-17.8 49.3-36.6 2.8-4.6 6-8.9 9.3-13.2 3.3-4.4 6.9-8.6 10.4-12.9 8.2 8.1 15.6 15.4 24.1 23.9zM338.9 964.5c-.9-.7-1.9-1.4-2.8-2.1 0-10.2-.4-20.4.1-30.5.6-11.5-3.5-19.4-14.7-23.2-9.6-3.3-18.8-7.8-28.6-10.3-7-1.8-14.8-1.9-22.1-1-12.1 1.5-21.4 8.8-28 18.6-14.2 21.3-17.2 45.4-16.6 71.2 6.5 0 11.9-.5 17.2.3 2.2.3 4.1 3.5 6.1 5.4-1.9 1.5-3.6 4-5.8 4.5-5.6 1.3-11.4 1.8-17.4 2.7-.8 33.3 1.9 65.4 12.2 97 16.3 50.4 33.2 100.2 67.2 142.1 22.6 27.8 47.9 52.8 80.8 67.3 33.5 14.8 66 9.7 90.3-20.3-2.1-2.5-4.3-5.1-6.6-7.6-9.5-10.2-19.3-20.2-28.6-30.6-14-15.6-28.3-30.9-41.2-47.4-21.2-27.2-30.8-58.9-32.7-93.2-2.3-43.2 4.7-83.4 34.7-116.8 3.2-3.6 3.4-6.1.1-9.5-16-16.9-31.9-34-48-50.8-2.5-2.6-6.2-4.1-11.1-7.2 0 13.1.2 24.1-.2 35.1-.1 2.1-2.8 4.2-4.3 6.3zm109.5-11.8c.4.7.7 1.4 1.1 2.1 6.9-.6 13.8-1.1 20.6-2 17.5-2.3 35.3-1.8 48.7-17.7 13.2-15.7 29.1-29.2 43.6-43.4-1-2-1.3-2.8-1.8-3.3-28.3-27.3-61.3-46.5-99.4-56.6-11.7-3.1-23.5-4.6-35.7-2-11.2 2.4-19.1 9.5-21.5 20.2-1.8 7.7 1 12 8.5 14.1 1.8.5 3.4 1.9 6.5 3.6-3.8 2.4-6.4 4-8.9 5.6 9.3 27.9 31.2 43.2 56 55.8-6.2 8.3-11.9 15.9-17.7 23.6zm530.7-10c8.5-6.6 16.2-12.4 23.7-18.5 12-9.6 23.2-20 28.4-35.2 6-17.4-2.1-32.9-20.5-34.6-12.7-1.2-26.2.4-38.8 3.2-18.2 3.9-36 9.8-53.9 15.3-2.4.7-5.7 4.2-5.7 6.4.2 15.5.7 31.1 1.9 46.6.8 11 7.5 18.2 16.9 23.9 20.1 12.2 41.9 10.3 65.4 9-6.2-5.8-11.4-10.6-17.4-16.1zm-170 305.4c-4 2.6-6.9 5.1-10.2 6.4-6.1 2.3-12.3 4.7-18.7 5.4-6 .6-12.5 0-18.3-1.7-7.6-2.3-11.3 1-15.1 6.6-8.6 12.5-18.1 24.1-32.9 29.8-7.2 2.8-14.6 5.2-22 7.5-16.5 5-29.7 15.2-43.2 26.9 17.5 10.2 34.1 18.2 53.5 21.1 50 7.6 117.1-31.1 106.9-102zm4.6-76.6c2.2-2.4 2.9-2.8 3.2-3.5 1.5-3.7 3.2-7.4 4.3-11.2 8.8-29.1 20-57 38-81.9 3.6-5 6.5-11.6 6.9-17.6 1.8-26.3-.2-52.4-7.1-78-1.1-4.1-2.8-5.8-7-5.9-18.2-.6-36.4-1.5-54.7-2-1.6 0-4.4 2.1-4.8 3.7-2.2 7.7-4.2 15.5-5.4 23.4-.4 2.6 1.3 6.2 3.2 8.4 30.4 36.2 41.1 77.2 31 123.6-2.8 12.8-4.8 25.8-7.6 41zm-17.4-276c-3.5-1-5.4-2-7.5-2.2-26.7-2.4-53.3-5-80-6.7-12.7-.8-13.6 0-14.4 12.4-1 15.6-.2 31.4-.2 47.3 4.3.2 8 .4 11.7.6 19.5.8 19.6.7 27-17.4 3.4-8.3 7.1-16.6 11.8-27.2 3 6.5 6.1 10.5 6.8 14.9 1.6 10.2 2.1 20.7 3.2 31 .3 2.5.5 6.2 2.1 7.2 8.6 5.1 17.6 9.6 27.9 15 3.9-25.8 7.7-50 11.6-74.9zM416.7 977c15.6-7.4 27.3-16.5 26.3-35.7-.3-5.6-1.1-9.2-5.6-12.6-17.7-13.7-31.5-30.4-39.8-51.5-.8-2.1-4.1-4.8-6-4.6-10.3 1-20.8 1.9-30.9 4.4-9.7 2.5-17 14.9-16.1 25.2.1 1.8 1.5 3.8 2.9 5.2 16.3 15.4 32.9 30.5 48.9 46.2 7.5 7.3 13.7 15.7 20.3 23.4zm207.8-93.3c-44.5 7.8-75.9 36.6-108.7 67 18.4 4.1 34.7 7.7 51.6 11.5 11.3-31.8 35.8-53.6 57.1-78.5zm226.2 74.9c.8-.9 1.7-1.7 2.5-2.6-7.4-15.9-14.4-32-22.5-47.5-2.8-5.4-8.1-10.4-15.8-8.7-7.5 1.6-10.3 7.8-11.6 14.1-3.1 14.8-5.5 29.8-8.1 44.8 19.3-.1 37.4-.1 55.5-.1zm-78.4 48.7c4 7.1 7.9 14.3 12.1 21.3 12.8 21.2 19.9 44.2 18.2 68.7-1.5 21.5-5.9 42.8-9.8 64-.9 4.9 0 7.9 2.8 11.5 4.9 6.3 9.9 12.7 14 19.5 4.8 8.2 4.9 16.8-1.5 24.7-5.1 6.2-10.1 12.5-15.1 18.8-3.7 4.8-7.3 9.7-11 14.5 14.5-5.6 23.6-16.4 32.1-27.9 12.8-17.3 13.1-17.4-.1-34.4-8.6-11.1-11.7-21.8-8-36.3 6.7-26.1 11.9-52.7 5.4-80-6-25.5-17.7-47.7-39.1-64.4zm127.9-122.6c-1.1-.5-2.3-1-3.4-1.5-14.1 10.1-28.2 20.1-42.1 30.4-1.1.8-2.1 3.4-1.7 4.6 4.7 12 9.7 24 14.6 36 13.5-3.4 23.1-11.5 26.1-24.6 3.4-14.8 4.5-30 6.5-44.9zM359.8 346c-10.3 9.7-21 19.8-32.5 30.5 9.6 8.5 19.7 17.6 30.1 26.3 1.5 1.3 5.8 1.7 6.9.6 9.2-9.1 17.9-18.7 26.2-27.6-9.9-9.5-20.5-19.8-30.7-29.8zm622.9 231.7c-10.2 9.6-20.8 19.6-32 30.2 9.4 8.4 19.5 17.5 29.9 26.2 1.4 1.2 5.6 1.4 6.7.2 9-8.9 17.5-18.3 25.7-27-9.7-9.4-20.1-19.6-30.3-29.6zm24-431.2c-8.4-9-17.4-18.7-26-27.9-7 6.6-16.6 15.6-26.6 25 8.3 7.4 16.9 15.4 26 22.9 1.5 1.3 5.9 1.5 7.2.4 7.9-7.8 15.3-16.1 19.4-20.4zM1208.9 1213c-6.3-6.7-15.2-16.3-23.7-25.3-6.9 6.5-16.5 15.4-26.4 24.7 9.9 8.7 19.9 17.6 27.9 24.6 9.4-10.2 17.5-18.9 22.2-24zM876.8 965.7c8.2 7.3 16.9 15.3 25.9 22.8 1.6 1.3 5.7 2.1 6.7 1.1 8.2-8.1 16-16.7 20.2-21.2-8.7-9.1-17.7-18.5-26.3-27.5-6.9 6.4-16.5 15.4-26.5 24.8zm100.1-749.4c2-45.7-17-67.9-57.7-64.6 19.2 21.6 38.5 43.1 57.7 64.6zM169 993.5c-5.7-6.1-14-15-22.1-23.6-6.4 6-15.3 14.3-24.8 23.2 9 7.9 18.4 16.4 26.9 23.8 8.3-9.7 15.6-18.2 20-23.4zm496.4-56.3c5.8-19 10.9-35.9 16.5-54.2-11 .7-20 1.3-29 2.1-1.1.1-2.3 1.2-3 2.2-5.5 8.2-5.1 26.3 1 34.1 4 4.9 8.6 9.3 14.5 15.8zm-76.1 7.1c-4.7 8.9-9.3 17.5-14.3 26.8 12.3 4.2 23.5 8 34.8 11.8 5.7-23.1 3.8-26.5-20.5-38.6zm283.1 34.2c2.8 19.8 5.5 38.8 8.5 59.2 5.6-5 9.8-8.6 13.8-12.4 1.6-1.5 3.6-3.6 3.8-5.5 1.8-15.5-10.6-35.4-26.1-41.3zm-533.9-91.7c7-8 12.8-14.5 16.2-18.3l-18.1-18.1c-4.7 4.4-11.5 10.8-18.9 17.7 7 6.3 14.2 12.8 20.8 18.7zm202.4-34.3c-.6.5-1.1.9-1.7 1.4 10.7 10.4 21.4 20.8 32.3 31.1.9.9 3.1 1.4 4.2.9 9-3.9 17.8-8.1 27.4-12.5-21.5-7.2-41.8-14-62.2-20.9zM914 1008.7c20.1-12.5 38.8-24 57.4-35.6-.2-.7-.3-1.4-.5-2.1-11.3 2.1-22.9 3.4-34 6.5-14.9 4-19.8 16.2-22.9 31.2zM792.9 1334h33.9c-3-11.6-5.6-22.2-8.7-34.2-9 12.1-16.7 22.5-25.2 34.2zm-49.5-91c-.8-.6-1.7-1.2-2.5-1.8l-32.4 43.2c.7.5 1.3 1 2 1.5 14.2-11.8 29.1-23.1 32.9-42.9zm99.1-340c8.4.2 15.7-5 14.4-9.2-.7-2.3-4.8-5.2-7.3-5.2-5.1.2-11.6.8-11.7 8 0 2.5 3.6 5.1 4.6 6.4zm-199.4 71.3c2.4-2.9 4.6-4.4 4.8-6.1.1-1.3-2.4-4.3-3.5-4.1-1.9.2-4.5 1.9-5 3.6-.4 1.3 1.8 3.4 3.7 6.6z"/><path d="M1045.8 807.1c2.2-1.3 4.2-3.7 6.5-3.8 11.5-.6 23.1.1 34.5-1 25.6-2.4 33.2-10.5 34.6-36.1.6-10.9-.4-21.9-.1-32.9.1-4.7 1.6-9.4 2.5-14.1h3.1c1 4.5 2.7 8.9 3 13.4.8 11.2 2.1 22.6 1.4 33.7-1.6 26.3 12.2 34.9 38.8 36.6 7.2.5 14.5-.2 21.7.1 2.5.1 5 1.5 7.5 2.3v3c-3.6.7-7.2 1.9-10.9 2.2-10.4.8-20.9.7-31.3 2-17.7 2.2-24.8 10.2-25.5 28.2-.5 12.6-.1 25.2-.2 37.8 0 3.8.2 7.6-.6 11.2-.4 1.7-2.7 3.1-4.1 4.6-.9-1.6-2.4-3.2-2.5-4.9-.6-12.8-.7-25.7-1.5-38.6-.4-6.6-1.6-13.3-3.5-19.7-2.9-9.7-9.6-16.5-19.9-17.6-17.2-2-34.6-3-51.9-4.4-.3-.6-.9-1.3-1.6-2zm95.5.7c-4.6-5.3-10.2-11.9-15.6-18.1-5.4 5.1-11.5 10.9-18.4 17.3 6.6 5.8 13.2 11.8 19.6 17.4 6.1-7.1 11.3-13.1 14.4-16.6zm-561.4 347.8c0-14.2-.1-27.5 0-40.7.1-9.7.6-19.3 1.2-29 1-16.2-6-28.9-19.2-36.5-27.6-15.9-56-30.4-84-45.5-6.2-3.3-11.5-.6-15.3 3.4-7.6 7.8-14.5 16.4-21.3 25.1-.9 1.2.1 5.2 1.5 6.6 7.2 7.2 14.9 13.9 22.4 20.8-.5.5-.9 1-1.4 1.4 0 .5.3 1.2.1 1.5-14.9 22-12.6 47.7-15.5 72.2-1.1 9.6-1 19.3-2.2 28.9-2.2 16.9 3.3 30.4 17.9 39.1 12.6 7.6 25.5 14.7 38.9 20.6 4.3 1.9 11.2.6 16-1.5 21.6-9.4 42.5-20.4 59.1-36.3 10.4 11.6 20.4 22.9 30.4 34.1-12.1 14.1-24.7 28.6-39 45.2 16.5 7.2 30.8 13.3 46.3 20-14.9 13.6-28.3 29-48.1 35.7-2.8 1-7.9-1.4-10.6-3.7-9.2-8.3-18-17-26.4-26-27.8-29.5-55.7-58.9-82.8-89.1-21.4-23.8-39.1-50.2-43.1-82.9-3-24.6-2.8-49.3 5.7-73.2 12.7-35.7 46.3-57.4 86.9-56.3 30 .8 54.6 11.9 72.7 36.3 5.7 7.7 12 14.9 18 22.4 12.8-10.3 24.4-20.7 37-29.7 47.9-34.2 133.7-11.1 140.8 65.6 3.4 37.2-4.3 70.9-28 100.2-5.1 6.3-12.1 11.1-18.2 16.6-1.1-.3-2.2-.6-3.2-.9-.8-14.5-1.6-29-2.3-43.6-.9-21.4 0-43-3-64.1-3.7-25.8-28.8-41.1-53.4-33.2-17.9 5.8-34.9 14.7-52.2 22.3-6.8 3-9.9 8.8-10.9 15.8-1.7 11.7-3 23.4-4.7 35-1.1 8.4-2.9 16.6-10.1 23.4zm6.7-84.2c.5.6 1 1.3 1.5 1.9 4.4-1.5 8.9-2.9 13.3-4.6 16.4-6.6 32.3-14.6 49.1-19.8 36.8-11.4 67.6 7.5 73.2 45.4 2.7 18.4 2 37.3 2.6 56 .3 9.9.1 19.9.1 31.8 20.6-28.6 31-58 28.9-91.7-3.8-62.4-60.6-83.1-99.9-72.6-23.4 6.2-40 22.2-56.7 38-4.7 4.5-8.1 10.4-12.1 15.6zm7.6 149.1c-4.6-4.3-8-6.9-10.8-10.1-4-4.6-7.8-5.1-13.2-1.9-11.1 6.5-22.2 13-33.9 18.2-12 5.3-24.7 9-37.2 13.4 0-.2-.1.5.2.8 21.2 22 42.4 44.1 63.7 66 1.1 1.2 4.3 2 5.4 1.3 8.4-5.4 16.6-11.3 25.9-17.8-6.7-3.4-11.9-6.1-17.1-8.8-11.4-6.1-15.7-15.3-11.5-27.5 1.9-5.7 5.2-11.3 9.2-15.8 5.7-6.3 12.5-11.6 19.3-17.8zm-167.4-183.6c-17.3 35.9-16.4 94.6 7.7 127 .6-3.8 1-6.5 1.3-9.3 3.4-29.2 6.7-58.3 10-87.5.2-2 .7-4.6-.3-5.9-5.9-8.1-12.2-16-18.7-24.3zm80.3-36c-.5.9-1.1 1.8-1.6 2.6 16.6 9.3 33.2 18.5 49.7 27.8l1.5-2.7c-12.8-15.7-29.4-24.9-49.6-27.7z"/><path d="M504.3 1084.5c5.7 1.9 10.3 3.3 14.7 4.8 7.8 2.7 12.2 8.6 11.4 16.5-1.8 19.1-4.2 38.2-7.1 57.3-.9 6.3-6 8-11.7 5.5-8.3-3.6-12.8-10.5-14.5-19-4.2-22 1-43 7.2-65.1zm7 71.3c7.8-19.7 9.2-48.4 3.3-59.3-7.3 16.7-9.1 44.2-3.3 59.3zm136.2-54.4c21.4 8.5 24.3 24.1 21.4 42.3-2.2 14.2-4.4 28.5-6.7 42.7-18.4-4.2-24.8-12-24.1-30.1.5-13.1 1.2-26.2 2.9-39.1.7-5.5 4.2-10.6 6.5-15.8zm7.3 14c-7 13.7-8.4 40.3-3.2 56.4 4.9-18.9 7.9-36.5 3.2-56.4zm-6 113.3c.8-6.4 11.5-17 14.9-14.1 5 4.3 7.9 11.3 10.7 17.6.2.6-7.1 6.4-10.9 6.4-9.1 0-15.2-5.1-14.7-9.9z"/></svg>